<svg width="600" height="600" viewBox="0 0 600 600" fill="none" xmlns="http://www.w3.org/2000/svg">
<rect width="600" height="600" fill="#171717"/>
<path d="M151.046 282.763C149.3 279.563 146.9 277.127 143.846 275.454C140.791 273.781 137.228 272.945 133.155 272.945C128.646 272.945 124.646 273.963 121.155 276C117.664 278.036 114.936 280.945 112.973 284.727C111.009 288.509 110.027 292.873 110.027 297.818C110.027 302.909 111.009 307.345 112.973 311.127C115.009 314.909 117.809 317.818 121.373 319.854C124.937 321.891 129.082 322.909 133.809 322.909C139.628 322.909 144.391 321.382 148.1 318.327C151.809 315.2 154.246 310.873 155.409 305.345H129.227V293.673H170.464V306.982C169.446 312.291 167.264 317.2 163.919 321.709C160.573 326.218 156.246 329.855 150.937 332.618C145.7 335.309 139.809 336.655 133.264 336.655C125.918 336.655 119.264 335.018 113.3 331.745C107.409 328.4 102.755 323.782 99.3364 317.891C95.9909 312 94.3182 305.309 94.3182 297.818C94.3182 290.327 95.9909 283.636 99.3364 277.745C102.755 271.781 107.409 267.163 113.3 263.891C119.264 260.545 125.882 258.872 133.155 258.872C141.737 258.872 149.191 260.981 155.519 265.2C161.846 269.345 166.209 275.2 168.609 282.763H151.046ZM197.036 284.945C199 281.745 201.545 279.236 204.673 277.418C207.873 275.6 211.509 274.691 215.582 274.691V290.727H211.546C206.745 290.727 203.109 291.854 200.636 294.109C198.236 296.363 197.036 300.291 197.036 305.891V336H181.764V275.563H197.036V284.945ZM221.942 305.563C221.942 299.454 223.142 294.036 225.542 289.309C228.014 284.582 231.323 280.945 235.469 278.4C239.687 275.854 244.378 274.581 249.542 274.581C254.051 274.581 257.978 275.491 261.324 277.309C264.742 279.127 267.469 281.418 269.505 284.182V275.563H284.887V336H269.505V327.164C267.542 330 264.815 332.364 261.324 334.255C257.905 336.073 253.942 336.982 249.433 336.982C244.342 336.982 239.687 335.673 235.469 333.055C231.323 330.436 228.014 326.764 225.542 322.036C223.142 317.236 221.942 311.745 221.942 305.563ZM269.505 305.782C269.505 302.073 268.778 298.909 267.324 296.291C265.869 293.6 263.905 291.563 261.433 290.182C258.96 288.727 256.305 288 253.469 288C250.633 288 248.014 288.691 245.614 290.072C243.214 291.454 241.251 293.491 239.723 296.182C238.269 298.8 237.542 301.927 237.542 305.563C237.542 309.2 238.269 312.4 239.723 315.164C241.251 317.854 243.214 319.927 245.614 321.382C248.087 322.836 250.705 323.564 253.469 323.564C256.305 323.564 258.96 322.873 261.433 321.491C263.905 320.036 265.869 318 267.324 315.382C268.778 312.691 269.505 309.491 269.505 305.782ZM333.295 274.691C340.495 274.691 346.313 276.982 350.75 281.563C355.186 286.072 357.404 292.4 357.404 300.545V336H342.131V302.618C342.131 297.818 340.931 294.145 338.531 291.6C336.131 288.982 332.859 287.672 328.713 287.672C324.495 287.672 321.149 288.982 318.677 291.6C316.277 294.145 315.077 297.818 315.077 302.618V336H299.804V275.563H315.077V283.091C317.113 280.472 319.695 278.436 322.822 276.982C326.022 275.454 329.513 274.691 333.295 274.691ZM389.71 288.109V317.345C389.71 319.382 390.183 320.873 391.128 321.818C392.146 322.691 393.819 323.127 396.146 323.127H403.237V336H393.637C380.764 336 374.328 329.745 374.328 317.236V288.109H367.128V275.563H374.328V260.618H389.71V275.563H403.237V288.109H389.71ZM429.495 284.4C431.459 281.491 434.15 279.127 437.568 277.309C441.059 275.491 445.022 274.581 449.459 274.581C454.622 274.581 459.277 275.854 463.422 278.4C467.641 280.945 470.95 284.582 473.35 289.309C475.822 293.963 477.059 299.382 477.059 305.563C477.059 311.745 475.822 317.236 473.35 322.036C470.95 326.764 467.641 330.436 463.422 333.055C459.277 335.673 454.622 336.982 449.459 336.982C444.95 336.982 440.986 336.109 437.568 334.364C434.222 332.545 431.531 330.218 429.495 327.382V336H414.222V255.272H429.495V284.4ZM461.459 305.563C461.459 301.927 460.695 298.8 459.168 296.182C457.713 293.491 455.75 291.454 453.277 290.072C450.877 288.691 448.259 288 445.422 288C442.659 288 440.04 288.727 437.568 290.182C435.168 291.563 433.204 293.6 431.677 296.291C430.222 298.982 429.495 302.145 429.495 305.782C429.495 309.418 430.222 312.582 431.677 315.273C433.204 317.964 435.168 320.036 437.568 321.491C440.04 322.873 442.659 323.564 445.422 323.564C448.259 323.564 450.877 322.836 453.277 321.382C455.75 319.927 457.713 317.854 459.168 315.164C460.695 312.473 461.459 309.273 461.459 305.563ZM494.921 336.764C492.157 336.764 489.866 335.927 488.048 334.255C486.303 332.509 485.43 330.364 485.43 327.818C485.43 325.273 486.303 323.164 488.048 321.491C489.866 319.745 492.157 318.873 494.921 318.873C497.612 318.873 499.83 319.745 501.575 321.491C503.321 323.164 504.194 325.273 504.194 327.818C504.194 330.364 503.321 332.509 501.575 334.255C499.83 335.927 497.612 336.764 494.921 336.764Z" fill="white"/>
</svg>
